<svg width="115" height="59" viewBox="0 0 115 59" fill="none" xmlns="http://www.w3.org/2000/svg">
<path d="M0 57.1508V0.797965H4.56194V31.1481H5.00106L29.3965 0.797965H35.3978L14.0518 26.8556L35.3002 57.1508H29.738L11.2219 30.4327L4.56194 38.8526V57.1508H0Z" fill="url(#paint0_linear_1_7)"/>
<path d="M64.9406 0.797965H69.5025V41.4391C69.4863 45.1079 68.9008 48.1714 67.7461 50.6295C66.5913 53.0692 64.9975 54.8945 62.9646 56.1052C60.9316 57.3159 58.5978 57.9212 55.9631 57.9212C53.3772 57.9212 51.0677 57.3801 49.0348 56.2978C47.0018 55.2155 45.3999 53.6929 44.2289 51.7301C43.0742 49.7673 42.4968 47.4651 42.4968 44.8236H46.9856C46.9856 46.4929 47.3759 47.9696 48.1565 49.2537C48.9372 50.5194 50.0025 51.51 51.3523 52.2254C52.7185 52.9408 54.2554 53.2985 55.9631 53.2985C57.7358 53.2985 59.289 52.8766 60.6226 52.0328C61.9725 51.189 63.0296 49.8957 63.794 48.153C64.5584 46.392 64.9406 44.154 64.9406 41.4391V0.797965Z" fill="url(#paint1_linear_1_7)"/>
<path d="M109.901 14.8862C109.625 11.7493 108.397 9.25455 106.218 7.40181C104.038 5.54906 101.298 4.62269 97.9964 4.62269C95.6707 4.62269 93.6215 5.07212 91.8487 5.97098C90.0923 6.86983 88.7099 8.11723 87.7015 9.71315C86.7094 11.2907 86.2134 13.0885 86.2134 15.1063C86.2134 16.5922 86.498 17.8946 87.0672 19.0136C87.6365 20.1326 88.4009 21.0956 89.3604 21.9028C90.3362 22.6915 91.4096 23.3703 92.5806 23.9389C93.7679 24.5076 94.9632 24.9845 96.1667 25.3698L101.436 27.0758C103.03 27.5711 104.624 28.2039 106.218 28.9744C107.811 29.7448 109.267 30.717 110.584 31.8911C111.918 33.0467 112.983 34.4684 113.78 36.1561C114.593 37.8254 115 39.834 115 42.1821C115 45.1905 114.309 47.8962 112.926 50.2993C111.544 52.7023 109.56 54.6101 106.974 56.0226C104.388 57.4168 101.29 58.1138 97.6792 58.1138C94.2801 58.1138 91.3283 57.481 88.8237 56.2152C86.3191 54.9311 84.3512 53.1609 82.92 50.9046C81.4888 48.6483 80.6838 46.0343 80.5049 43.0626H85.1888C85.3514 45.2822 86.002 47.1625 87.1404 48.7034C88.2789 50.2443 89.7589 51.4183 91.5804 52.2254C93.4019 53.0142 95.4349 53.4086 97.6792 53.4086C100.168 53.4086 102.379 52.9408 104.315 52.0053C106.266 51.0514 107.795 49.7306 108.901 48.043C110.023 46.337 110.584 44.3558 110.584 42.0995C110.584 40.1917 110.145 38.5958 109.267 37.3117C108.389 36.0093 107.161 34.9178 105.583 34.0373C104.022 33.1568 102.209 32.3772 100.143 31.6985L94.1663 29.7173C90.2468 28.3965 87.2055 26.5713 85.0424 24.2416C82.8794 21.9119 81.7978 18.9402 81.7978 15.3264C81.7978 12.2997 82.5134 9.63978 83.9446 7.34678C85.3921 5.03543 87.3437 3.23772 89.7995 1.95364C92.2716 0.651212 95.0445 0 98.1183 0C101.225 0 103.973 0.642042 106.364 1.92612C108.755 3.2102 110.649 4.9804 112.048 7.23671C113.463 9.47468 114.219 12.0245 114.317 14.8862H109.901Z" fill="url(#paint2_linear_1_7)"/>
<defs>
<linearGradient id="paint0_linear_1_7" x1="115" y1="3.99996" x2="-110.308" y2="49.0821" gradientUnits="userSpaceOnUse">
<stop stop-color="#00A2FD"/>
<stop offset="1" stop-color="#B217E9"/>
</linearGradient>
<linearGradient id="paint1_linear_1_7" x1="115" y1="3.99996" x2="-110.308" y2="49.0821" gradientUnits="userSpaceOnUse">
<stop stop-color="#00A2FD"/>
<stop offset="1" stop-color="#B217E9"/>
</linearGradient>
<linearGradient id="paint2_linear_1_7" x1="115" y1="3.99996" x2="-110.308" y2="49.0821" gradientUnits="userSpaceOnUse">
<stop stop-color="#00A2FD"/>
<stop offset="1" stop-color="#B217E9"/>
</linearGradient>
</defs>
</svg>
